<svg width="1440" height="835" viewBox="0 0 1440 835" fill="none" xmlns="http://www.w3.org/2000/svg">
<path fill-rule="evenodd" clip-rule="evenodd" d="M1439 0H0V835H1439V0ZM1355.34 125.592C1365.83 125.592 1374.34 134.099 1374.34 144.592V579C1374.34 589.493 1365.83 598 1355.34 598H1013.66C1003.17 598 994.659 606.507 994.659 617V764.556C994.659 775.049 986.153 783.556 975.659 783.556H244.746C234.253 783.556 225.746 775.049 225.746 764.556V309C225.746 298.507 234.253 290 244.746 290H514.275C524.768 290 533.275 281.493 533.275 271V144.593C533.275 134.099 541.781 125.592 552.275 125.592H1355.34Z" fill="#171717"/>
<path fill-rule="evenodd" clip-rule="evenodd" d="M1012.67 639.315C1012.67 626.061 1023.42 615.315 1036.67 615.315H1349.97C1363.23 615.315 1373.97 626.061 1373.97 639.315V651.439C1373.97 664.428 1363.44 674.958 1350.46 674.958H1340.85C1333.17 674.958 1326.94 681.189 1326.94 688.875V688.875V690.863V695.369C1326.94 708.624 1316.19 719.369 1302.94 719.369H1129.25C1115.99 719.369 1105.25 730.114 1105.25 743.369V752.351C1105.25 765.606 1094.5 776.351 1081.25 776.351H1036.67C1023.42 776.351 1012.67 765.606 1012.67 752.351V639.315ZM1343.95 705.116C1343.95 712.988 1350.33 719.369 1358.2 719.369H1359.72C1367.59 719.369 1373.97 712.988 1373.97 705.116V705.116C1373.97 697.244 1367.59 690.863 1359.72 690.863H1358.2C1350.33 690.863 1343.95 697.244 1343.95 705.116V705.116Z" fill="#1A2122"/>
</svg>
