<svg width="1245" height="900" viewBox="0 0 1245 900" fill="none" xmlns="http://www.w3.org/2000/svg">
<path fill-rule="evenodd" clip-rule="evenodd" d="M1245 0H0V900H1245V0ZM1191.83 65.8332C1202.33 65.8332 1210.83 74.3398 1210.83 84.8332V609.333C1210.83 619.827 1202.33 628.333 1191.83 628.333H836.945C826.451 628.333 817.945 636.84 817.945 647.333V826C817.945 836.493 809.438 845 798.945 845H41.4993C31.0059 845 22.4994 836.493 22.4994 826V279.832C22.4994 269.339 31.0059 260.833 41.4994 260.833H321.679C332.172 260.833 340.679 252.326 340.679 241.833V84.8332C340.679 74.3398 349.186 65.8332 359.679 65.8332H1191.83Z" fill="#171717"/>
</svg>
