<svg width="1201" height="1201" viewBox="0 0 1201 1201" fill="none" xmlns="http://www.w3.org/2000/svg">
<path fill-rule="evenodd" clip-rule="evenodd" d="M1183.54 1.1468C1192.38 2.7719 1199.09 10.5201 1199.09 19.8333V847.917C1199.09 858.41 1190.58 866.917 1180.09 866.917H822.703C812.209 866.917 803.703 875.423 803.703 885.917V1181.52C803.703 1192.01 795.196 1200.52 784.703 1200.52H22.2067C11.7133 1200.52 3.20668 1192.01 3.20668 1181.52V320.075C3.20668 309.581 11.7133 301.075 22.2067 301.075H304.406C314.9 301.075 323.406 292.568 323.406 282.075V19.8333C323.406 10.5201 330.107 2.7719 338.95 1.1468H1183.54ZM1183.54 1.1468H1200.91V1200.83H0.907959V1.1468H338.95C340.071 0.940861 341.226 0.833252 342.406 0.833252H1180.09C1181.27 0.833252 1182.42 0.940861 1183.54 1.1468Z" fill="#171717"/>
</svg>
