<?xml version="1.0" encoding="UTF-8"?>
<svg id="Layer_2" data-name="Layer 2" xmlns="http://www.w3.org/2000/svg" viewBox="0 0 395.6095 366.9287">
  <defs>
    <style>
      .cls-1 {
        fill: #fff;
        stroke: #231f20;
        stroke-miterlimit: 10;
        stroke-width: 2px;
      }
    </style>
  </defs>
  <g id="Layer_1-2" data-name="Layer 1">
    <g>
      <path class="cls-1" d="M255.6032,191.026c-7.8927,90.8845-147.987,57.6886-107.0788-30.9836,10.7172-19.7963,32.7469-28.923,54.3805-27.15,30.0909,2.4836,54.3264,24.633,52.7072,57.9148l-.0088.2188Z"/>
      <path class="cls-1" d="M1.066,292.1692c78.3144,192.9075,344.5447-44.9369,275.2362-120.3887-.4108-.4134-.4194-.0895-.3438.8155C292.7737,337.259,110.6076,333.9854,1.0953,292.0821l-.0293.0871Z"/>
      <path class="cls-1" d="M376.019,57.6009C295.7197-98.5782,22.1837,104.6362,130.3851,231.336c.6746.7748.6509.6263.086-.4016C44.9799,75.6457,261.6149,14.7447,375.99,57.6644l.0291-.0635Z"/>
      <path class="cls-1" d="M344.524,348.9854C494.639,254.8031,271.1813,9.3199,147.629,118.9297c-.5787.5646-.5222.5477.3631.1049,154.8245-81.6622,225.7599,103.0629,196.4644,229.9212l.0676.0296Z"/>
      <path class="cls-1" d="M61.5502,9.7762c-148.5666,88.1895,54.9092,355.5939,182.0665,246.0442.7501-.689.6435-.6571-.4063-.119C87.1813,338.5129,25.6615,126.0207,61.6136,9.8019l-.0634-.0257Z"/>
    </g>
  </g>
</svg>