<svg width="28" height="38" viewBox="0 0 28 38" fill="none" xmlns="http://www.w3.org/2000/svg">
<g filter="url(#filter0_d_278_706)">
<path d="M22.9993 0.833008H17.9993C15.7892 0.833008 13.6696 1.71098 12.1068 3.27378C10.544 4.83659 9.66602 6.9562 9.66602 9.16634V14.1663H4.66602V20.833H9.66602V34.1663H16.3327V20.833H21.3327L22.9993 14.1663H16.3327V9.16634C16.3327 8.72431 16.5083 8.30039 16.8208 7.98783C17.1334 7.67527 17.5573 7.49967 17.9993 7.49967H22.9993V0.833008Z" fill="white"/>
<path d="M22.9993 0.833008H17.9993C15.7892 0.833008 13.6696 1.71098 12.1068 3.27378C10.544 4.83659 9.66602 6.9562 9.66602 9.16634V14.1663H4.66602V20.833H9.66602V34.1663H16.3327V20.833H21.3327L22.9993 14.1663H16.3327V9.16634C16.3327 8.72431 16.5083 8.30039 16.8208 7.98783C17.1334 7.67527 17.5573 7.49967 17.9993 7.49967H22.9993V0.833008Z" stroke="white" stroke-linecap="round" stroke-linejoin="round"/>
</g>
<defs>
<filter id="filter0_d_278_706" x="0.166016" y="0.333008" width="27.334" height="42.333" filterUnits="userSpaceOnUse" color-interpolation-filters="sRGB">
<feFlood flood-opacity="0" result="BackgroundImageFix"/>
<feColorMatrix in="SourceAlpha" type="matrix" values="0 0 0 0 0 0 0 0 0 0 0 0 0 0 0 0 0 0 127 0" result="hardAlpha"/>
<feOffset dy="4"/>
<feGaussianBlur stdDeviation="2"/>
<feComposite in2="hardAlpha" operator="out"/>
<feColorMatrix type="matrix" values="0 0 0 0 0 0 0 0 0 0 0 0 0 0 0 0 0 0 0.25 0"/>
<feBlend mode="normal" in2="BackgroundImageFix" result="effect1_dropShadow_278_706"/>
<feBlend mode="normal" in="SourceGraphic" in2="effect1_dropShadow_278_706" result="shape"/>
</filter>
</defs>
</svg>
