<svg width="36" height="34" viewBox="0 0 36 34" fill="none" xmlns="http://www.w3.org/2000/svg">
<path d="M24.6673 10.833C27.3195 10.833 29.863 11.8866 31.7384 13.7619C33.6137 15.6373 34.6673 18.1808 34.6673 20.833V32.4997H28.0007V20.833C28.0007 19.949 27.6495 19.1011 27.0243 18.476C26.3992 17.8509 25.5514 17.4997 24.6673 17.4997C23.7833 17.4997 22.9354 17.8509 22.3103 18.476C21.6852 19.1011 21.334 19.949 21.334 20.833V32.4997H14.6673V20.833C14.6673 18.1808 15.7209 15.6373 17.5962 13.7619C19.4716 11.8866 22.0152 10.833 24.6673 10.833Z" fill="white"/>
<path d="M8.00065 12.4997H1.33398V32.4997H8.00065V12.4997Z" fill="white"/>
<path d="M4.66732 7.49967C6.50827 7.49967 8.00065 6.00729 8.00065 4.16634C8.00065 2.32539 6.50827 0.833008 4.66732 0.833008C2.82637 0.833008 1.33398 2.32539 1.33398 4.16634C1.33398 6.00729 2.82637 7.49967 4.66732 7.49967Z" fill="white"/>
<path d="M24.6673 10.833C27.3195 10.833 29.863 11.8866 31.7384 13.7619C33.6137 15.6373 34.6673 18.1808 34.6673 20.833V32.4997H28.0007V20.833C28.0007 19.949 27.6495 19.1011 27.0243 18.476C26.3992 17.8509 25.5514 17.4997 24.6673 17.4997C23.7833 17.4997 22.9354 17.8509 22.3103 18.476C21.6852 19.1011 21.334 19.949 21.334 20.833V32.4997H14.6673V20.833C14.6673 18.1808 15.7209 15.6373 17.5962 13.7619C19.4716 11.8866 22.0152 10.833 24.6673 10.833Z" stroke="white" stroke-width="1.5" stroke-linecap="round" stroke-linejoin="round"/>
<path d="M8.00065 12.4997H1.33398V32.4997H8.00065V12.4997Z" stroke="white" stroke-width="1.5" stroke-linecap="round" stroke-linejoin="round"/>
<path d="M4.66732 7.49967C6.50827 7.49967 8.00065 6.00729 8.00065 4.16634C8.00065 2.32539 6.50827 0.833008 4.66732 0.833008C2.82637 0.833008 1.33398 2.32539 1.33398 4.16634C1.33398 6.00729 2.82637 7.49967 4.66732 7.49967Z" stroke="white" stroke-width="1.5" stroke-linecap="round" stroke-linejoin="round"/>
</svg>
