<svg width="309" height="250" viewBox="0 0 309 250" fill="none" xmlns="http://www.w3.org/2000/svg">
<g clip-path="url(#clip0_189_759)">
<path fill-rule="evenodd" clip-rule="evenodd" d="M151.077 0L91.4718 95.7791L113.008 114.458L96.3622 141.899L63.5638 130.566L10.4137 230.072L68.4106 187.978L48.2289 221.248L15.4457 235.861L38.8942 236.637L-21.4554 336.123C-29.7606 349.814 -28.4743 367.265 -18.2514 379.591L128.25 556.228C143.35 574.433 171.316 574.327 186.275 556.001L330.456 379.402C340.455 367.154 341.716 349.957 333.61 336.383L273.928 236.434L292.642 235.816L266.638 224.224L251.934 199.599L293.92 230.072L240.77 130.566L215.854 139.176L199.233 111.34L217.175 95.7791L157.571 0L165.684 77.5366C158.092 75.793 150.038 76.4085 142.77 79.3863L151.077 0ZM165.684 77.5366L171.718 135.204L199.233 111.34L189.404 94.8798C183.792 85.4813 175.093 79.6975 165.684 77.5366ZM215.854 139.176L183.896 150.218L251.934 199.599L215.854 139.176ZM266.638 224.224L168.471 180.465L179.887 239.542L273.928 236.434L266.638 224.224ZM38.8942 236.637L128.2 239.588L139.617 180.511L48.2289 221.248L38.8942 236.637ZM68.4106 187.978L96.3622 141.899L120.437 150.218L68.4106 187.978ZM142.77 79.3863L136.929 135.204L113.008 114.458L125.021 94.6557C129.45 87.3543 135.742 82.2657 142.77 79.3863ZM189.404 654.248C174.886 629.934 139.708 629.814 125.021 654.025L-21.4554 895.491C-29.7606 909.183 -28.4743 926.632 -18.2514 938.96L128.25 1115.6C143.35 1133.8 171.316 1133.7 186.275 1115.37L330.456 938.77C340.455 926.525 341.716 909.326 333.61 895.75L189.404 654.248Z" fill="#FFFFFB"/>
</g>
<defs>
<clipPath id="clip0_189_759">
<rect width="308.462" height="250" fill="white"/>
</clipPath>
</defs>
</svg>
