<svg width="418" height="649" viewBox="0 0 418 649" fill="none" xmlns="http://www.w3.org/2000/svg">
<mask id="path-1-outside-1_381_685" maskUnits="userSpaceOnUse" x="0" y="0" width="418" height="649" fill="black">
<rect fill="white" width="418" height="649"/>
<path fill-rule="evenodd" clip-rule="evenodd" d="M1 20C1 9.5066 9.50659 1 20 1H398C408.493 1 417 9.50659 417 20V65.7849C417 78.1332 408.908 89.0225 397.085 92.5851V92.5851C394.646 93.3199 392.398 94.4315 390.387 95.8387C388.212 97.3608 386.122 99.044 384.259 100.936C379.497 105.771 377.215 112.914 378.875 119.818L382.759 135.966C383.145 137.572 383.722 139.07 384.458 140.441C385.756 142.858 387.422 145.086 389.223 147.156C394.969 153.757 404.19 156.69 413.355 153.929V153.929C415.17 153.382 417 154.741 417 156.638V629C417 639.493 408.493 648 398 648H20C9.50659 648 1 639.493 1 629V582.388C1 579.022 3.76668 576.313 7.13238 576.384V576.384C14.2838 576.534 20.7501 573.508 25.188 568.598C28.603 564.82 31.6116 560.435 33.3473 555.647C34.0433 553.727 34.4383 551.66 34.4747 549.501L34.7562 532.772C34.8105 529.546 34.0578 526.491 32.6843 523.801C31.2187 520.93 29.2743 518.299 27.2664 515.777C22.0892 509.276 14.169 505.035 5.22927 504.847V504.847C2.87922 504.797 1 502.878 1 500.527V20ZM412.819 128.489C415.301 127.741 417 125.455 417 122.863V118.96C417 114.71 412.901 111.665 408.833 112.891V112.891C405.614 113.86 403.712 117.174 404.498 120.442L405.411 124.237C406.2 127.519 409.587 129.463 412.819 128.489V128.489ZM15.3178 545.607C15.2511 549.573 11.9735 552.728 8.00848 552.645V552.645C4.11413 552.562 1 549.382 1 545.487V540.933C1 536.899 4.31579 533.652 8.34948 533.737V533.737C12.3118 533.821 15.4611 537.092 15.3944 541.054L15.3178 545.607Z"/>
</mask>
<path fill-rule="evenodd" clip-rule="evenodd" d="M1 20C1 9.5066 9.50659 1 20 1H398C408.493 1 417 9.50659 417 20V65.7849C417 78.1332 408.908 89.0225 397.085 92.5851V92.5851C394.646 93.3199 392.398 94.4315 390.387 95.8387C388.212 97.3608 386.122 99.044 384.259 100.936C379.497 105.771 377.215 112.914 378.875 119.818L382.759 135.966C383.145 137.572 383.722 139.07 384.458 140.441C385.756 142.858 387.422 145.086 389.223 147.156C394.969 153.757 404.19 156.69 413.355 153.929V153.929C415.17 153.382 417 154.741 417 156.638V629C417 639.493 408.493 648 398 648H20C9.50659 648 1 639.493 1 629V582.388C1 579.022 3.76668 576.313 7.13238 576.384V576.384C14.2838 576.534 20.7501 573.508 25.188 568.598C28.603 564.82 31.6116 560.435 33.3473 555.647C34.0433 553.727 34.4383 551.66 34.4747 549.501L34.7562 532.772C34.8105 529.546 34.0578 526.491 32.6843 523.801C31.2187 520.93 29.2743 518.299 27.2664 515.777C22.0892 509.276 14.169 505.035 5.22927 504.847V504.847C2.87922 504.797 1 502.878 1 500.527V20ZM412.819 128.489C415.301 127.741 417 125.455 417 122.863V118.96C417 114.71 412.901 111.665 408.833 112.891V112.891C405.614 113.86 403.712 117.174 404.498 120.442L405.411 124.237C406.2 127.519 409.587 129.463 412.819 128.489V128.489ZM15.3178 545.607C15.2511 549.573 11.9735 552.728 8.00848 552.645V552.645C4.11413 552.562 1 549.382 1 545.487V540.933C1 536.899 4.31579 533.652 8.34948 533.737V533.737C12.3118 533.821 15.4611 537.092 15.3944 541.054L15.3178 545.607Z" fill="#143737"/>
<path d="M378.875 119.818L379.848 119.584L379.848 119.584L378.875 119.818ZM382.759 135.966L383.731 135.732L383.731 135.732L382.759 135.966ZM34.4747 549.501L35.4745 549.517L35.4745 549.517L34.4747 549.501ZM34.7562 532.772L35.756 532.788L35.756 532.788L34.7562 532.772ZM15.3944 541.054L14.3946 541.038L15.3944 541.054ZM32.6843 523.801L33.575 523.346L32.6843 523.801ZM27.2664 515.777L28.0487 515.154L27.2664 515.777ZM25.188 568.598L24.4461 567.928L25.188 568.598ZM33.3473 555.647L32.4072 555.306L33.3473 555.647ZM390.387 95.8387L390.96 96.658L390.387 95.8387ZM384.259 100.936L383.547 100.234L384.259 100.936ZM384.458 140.441L383.577 140.914L384.458 140.441ZM389.223 147.156L388.469 147.812L389.223 147.156ZM404.498 120.442L405.471 120.208L404.498 120.442ZM405.411 124.237L404.439 124.471L405.411 124.237ZM20 0C8.9543 0 0 8.95431 0 20H2C2 10.0589 10.0589 2 20 2V0ZM398 0H20V2H398V0ZM418 20C418 8.95431 409.046 0 398 0V2C407.941 2 416 10.0589 416 20H418ZM418 65.7849V20H416V65.7849H418ZM396.797 91.6276C394.253 92.394 391.909 93.5531 389.814 95.0194L390.96 96.658C392.887 95.3099 395.04 94.2458 397.374 93.5426L396.797 91.6276ZM383.547 100.234C378.559 105.298 376.157 112.789 377.903 120.051L379.848 119.584C378.274 113.039 380.435 106.244 384.972 101.637L383.547 100.234ZM377.903 120.051L381.787 136.2L383.731 135.732L379.848 119.584L377.903 120.051ZM381.787 136.2C382.193 137.889 382.8 139.467 383.577 140.914L385.339 139.968C384.643 138.673 384.097 137.256 383.731 135.732L381.787 136.2ZM388.469 147.812C394.471 154.708 404.098 157.762 413.643 154.886L413.066 152.971C404.281 155.618 395.468 152.807 389.977 146.499L388.469 147.812ZM418 629V156.638H416V629H418ZM398 649C409.046 649 418 640.046 418 629H416C416 638.941 407.941 647 398 647V649ZM20 649H398V647H20V649ZM0 629C0 640.046 8.9543 649 20 649V647C10.0589 647 2 638.941 2 629H0ZM0 582.388V629H2V582.388H0ZM24.4461 567.928C20.195 572.631 14.0034 575.528 7.15346 575.384L7.1113 577.383C14.5642 577.541 21.3053 574.385 25.9298 569.269L24.4461 567.928ZM33.4748 549.484C33.4403 551.531 33.0659 553.489 32.4072 555.306L34.2874 555.988C35.0207 553.965 35.4363 551.788 35.4745 549.517L33.4748 549.484ZM33.7563 532.755L33.4748 549.484L35.4745 549.517L35.756 532.788L33.7563 532.755ZM31.7936 524.255C33.0946 526.804 33.8078 529.697 33.7563 532.755L35.756 532.788C35.8132 529.395 35.0209 526.179 33.575 523.346L31.7936 524.255ZM5.20818 505.847C13.8376 506.029 21.4837 510.12 26.4841 516.4L28.0487 515.154C22.6948 508.431 14.5004 504.042 5.25035 503.847L5.20818 505.847ZM0 20V500.527H2V20H0ZM418 122.863V118.96H416V122.863H418ZM406.383 124.003L405.471 120.208L403.526 120.676L404.439 124.471L406.383 124.003ZM0 540.933V545.487H2V540.933H0ZM16.3177 545.624L16.3943 541.071L14.3946 541.038L14.318 545.59L16.3177 545.624ZM8.3284 534.737C11.7402 534.809 14.452 537.625 14.3946 541.038L16.3943 541.071C16.4702 536.558 12.8834 532.833 8.37056 532.737L8.3284 534.737ZM2 540.933C2 537.459 4.85511 534.664 8.3284 534.737L8.37056 532.737C3.77646 532.64 0 536.338 0 540.933H2ZM8.02956 551.645C4.67916 551.574 2 548.838 2 545.487H0C0 549.926 3.5491 553.551 7.98739 553.644L8.02956 551.645ZM418 118.96C418 114.04 413.254 110.514 408.544 111.933L409.121 113.848C412.548 112.815 416 115.381 416 118.96H418ZM416 122.863C416 125.014 414.59 126.911 412.531 127.531L413.108 129.446C416.012 128.571 418 125.896 418 122.863H416ZM5.25035 503.847C3.44425 503.809 2 502.334 2 500.527H0C0 503.422 2.31419 505.786 5.20818 505.847L5.25035 503.847ZM33.575 523.346C32.0624 520.383 30.0668 517.689 28.0487 515.154L26.4841 516.4C28.4818 518.909 30.375 521.476 31.7936 524.255L33.575 523.346ZM25.9298 569.269C29.4013 565.428 32.4945 560.934 34.2874 555.988L32.4072 555.306C30.7288 559.936 27.8047 564.212 24.4461 567.928L25.9298 569.269ZM2 582.388C2 579.582 4.30601 577.324 7.11129 577.383L7.15347 575.384C3.22735 575.301 0 578.461 0 582.388H2ZM413.643 154.886C414.817 154.533 416 155.412 416 156.638H418C418 154.071 415.524 152.231 413.066 152.971L413.643 154.886ZM7.98739 553.644C12.5063 553.74 16.2416 550.143 16.3177 545.624L14.318 545.59C14.2605 549.002 11.4408 551.717 8.02956 551.645L7.98739 553.644ZM389.814 95.0194C387.603 96.5666 385.463 98.2883 383.547 100.234L384.972 101.637C386.782 99.7997 388.821 98.155 390.96 96.658L389.814 95.0194ZM383.577 140.914C384.922 143.417 386.637 145.707 388.469 147.812L389.977 146.499C388.207 144.465 386.591 142.299 385.339 139.968L383.577 140.914ZM408.544 111.933C404.818 113.056 402.616 116.892 403.526 120.676L405.471 120.208C404.809 117.455 406.41 114.665 409.121 113.848L408.544 111.933ZM404.439 124.471C405.362 128.312 409.325 130.586 413.108 129.446L412.531 127.531C409.848 128.34 407.038 126.727 406.383 124.003L404.439 124.471ZM416 65.7849C416 77.692 408.197 88.1923 396.797 91.6276L397.374 93.5426C409.619 89.8527 418 78.5743 418 65.7849H416Z" fill="#1F1F1F" mask="url(#path-1-outside-1_381_685)"/>
<path d="M98.396 536.396C98.504 536.54 98.528 536.72 98.468 536.888L95.768 544.652C95.696 544.868 95.492 545.012 95.264 545.012H94.688C94.46 545.012 94.256 544.868 94.184 544.664L92.384 539.48L90.584 544.652C90.512 544.868 90.308 545.012 90.08 545.012H89.504C89.276 545.012 89.072 544.868 89 544.664L86.3 536.888C86.24 536.72 86.264 536.54 86.372 536.408C86.468 536.264 86.636 536.18 86.804 536.18H87.26C87.488 536.18 87.692 536.324 87.764 536.54L89.792 542.348L91.808 536.54C91.892 536.324 92.096 536.18 92.324 536.168H92.372C92.396 536.168 92.408 536.168 92.432 536.168C92.516 536.168 92.612 536.192 92.696 536.24C92.828 536.3 92.924 536.42 92.972 536.564L94.976 542.348L97.004 536.54C97.076 536.324 97.28 536.18 97.508 536.18H97.964C98.132 536.18 98.3 536.252 98.396 536.396ZM105.197 541.412C105.209 541.532 105.221 541.652 105.221 541.772V541.892C105.221 542.192 104.981 542.432 104.681 542.432H100.289C100.565 543.14 101.261 543.62 102.029 543.62C102.209 543.62 102.401 543.596 102.569 543.536C102.749 543.488 102.917 543.404 103.073 543.296C103.121 543.26 103.181 543.224 103.229 543.176C103.265 543.152 103.289 543.128 103.313 543.104C103.421 542.984 103.565 542.924 103.721 542.924C103.841 542.924 103.973 542.972 104.069 543.044C104.081 543.068 104.105 543.08 104.129 543.104L104.357 543.332C104.525 543.476 104.597 543.716 104.525 543.932C104.489 544.04 104.429 544.124 104.345 544.196C104.321 544.22 104.297 544.244 104.273 544.256C104.225 544.304 104.177 544.352 104.117 544.4C104.009 544.484 103.901 544.556 103.781 544.628C103.541 544.772 103.289 544.892 103.037 544.976C102.773 545.06 102.497 545.108 102.221 545.12C102.161 545.12 102.089 545.132 102.029 545.132C100.169 545.12 98.6689 543.62 98.6689 541.76C98.6689 539.912 100.169 538.4 102.029 538.4C102.845 538.388 103.637 538.712 104.213 539.288C104.789 539.852 105.137 540.608 105.197 541.412ZM100.373 540.92H103.541C103.289 540.308 102.689 539.9 102.029 539.912C101.333 539.912 100.697 540.308 100.373 540.92ZM113.098 538.4C114.67 538.4 115.942 539.672 115.942 541.244V544.484C115.942 544.772 115.702 545.012 115.402 545.024H114.97C114.67 545.012 114.43 544.772 114.43 544.484V541.244C114.43 540.512 113.842 539.912 113.098 539.912C112.366 539.912 111.766 540.512 111.766 541.244V544.484C111.766 544.772 111.526 545.012 111.226 545.024H110.794C110.506 545.012 110.266 544.772 110.266 544.484V536.708C110.266 536.42 110.506 536.18 110.794 536.18H111.226C111.526 536.18 111.766 536.42 111.766 536.708V538.736C112.174 538.52 112.63 538.4 113.098 538.4ZM123.435 538.508C123.735 538.508 123.975 538.748 123.975 539.048V544.484C123.975 544.772 123.735 545.012 123.435 545.012H123.003C122.739 545.012 122.511 544.82 122.475 544.556C121.923 544.928 121.275 545.132 120.615 545.132C118.755 545.12 117.255 543.62 117.255 541.76C117.255 539.912 118.755 538.412 120.615 538.4C121.275 538.4 121.923 538.604 122.475 538.964C122.511 538.712 122.739 538.508 123.003 538.508H123.435ZM122.463 541.784V541.748C122.451 540.728 121.623 539.912 120.615 539.912C119.583 539.912 118.755 540.74 118.755 541.76C118.755 542.792 119.583 543.62 120.615 543.62C121.623 543.62 122.451 542.792 122.463 541.784ZM131.268 538.76C131.364 538.904 131.388 539.096 131.316 539.264L129.036 544.688C128.952 544.892 128.76 545.012 128.544 545.012H127.98C127.764 545.012 127.56 544.892 127.476 544.688L125.208 539.252C125.136 539.096 125.16 538.904 125.256 538.748C125.352 538.604 125.52 538.508 125.7 538.508H126.168C126.384 538.508 126.576 538.64 126.66 538.844L128.256 542.648L129.852 538.844C129.936 538.64 130.14 538.508 130.356 538.508H130.812C131.004 538.508 131.172 538.604 131.268 538.76ZM138.677 541.412C138.689 541.532 138.701 541.652 138.701 541.772V541.892C138.701 542.192 138.461 542.432 138.161 542.432H133.769C134.045 543.14 134.741 543.62 135.509 543.62C135.689 543.62 135.881 543.596 136.049 543.536C136.229 543.488 136.397 543.404 136.553 543.296C136.601 543.26 136.661 543.224 136.709 543.176C136.745 543.152 136.769 543.128 136.793 543.104C136.901 542.984 137.045 542.924 137.201 542.924C137.321 542.924 137.453 542.972 137.549 543.044C137.561 543.068 137.585 543.08 137.609 543.104L137.837 543.332C138.005 543.476 138.077 543.716 138.005 543.932C137.969 544.04 137.909 544.124 137.825 544.196C137.801 544.22 137.777 544.244 137.753 544.256C137.705 544.304 137.657 544.352 137.597 544.4C137.489 544.484 137.381 544.556 137.261 544.628C137.021 544.772 136.769 544.892 136.517 544.976C136.253 545.06 135.977 545.108 135.701 545.12C135.641 545.12 135.569 545.132 135.509 545.132C133.649 545.12 132.149 543.62 132.149 541.76C132.149 539.912 133.649 538.4 135.509 538.4C136.325 538.388 137.117 538.712 137.693 539.288C138.269 539.852 138.617 540.608 138.677 541.412ZM133.853 540.92H137.021C136.769 540.308 136.169 539.9 135.509 539.912C134.813 539.912 134.177 540.308 133.853 540.92ZM148.055 538.868C148.115 539 148.115 539.168 148.043 539.3L147.851 539.696C147.755 539.876 147.575 539.996 147.371 539.996C147.299 539.996 147.239 539.984 147.179 539.96H147.155C147.131 539.948 147.119 539.948 147.095 539.936C147.071 539.936 147.059 539.936 147.035 539.924C147.011 539.924 146.999 539.924 146.975 539.912C146.951 539.912 146.927 539.912 146.915 539.912C146.891 539.9 146.867 539.9 146.843 539.9C146.819 539.9 146.807 539.9 146.783 539.9C146.759 539.9 146.747 539.9 146.723 539.9C145.907 539.9 145.247 540.512 145.247 541.28V544.484C145.247 544.772 145.007 545.012 144.707 545.024H144.275C143.987 545.012 143.747 544.772 143.747 544.484V539.048C143.747 538.748 143.987 538.508 144.275 538.508H144.707C144.911 538.508 145.103 538.628 145.187 538.808C145.655 538.532 146.183 538.388 146.723 538.388C147.071 538.388 147.407 538.448 147.731 538.556C147.887 538.616 147.995 538.724 148.055 538.868ZM155.177 541.412C155.189 541.532 155.201 541.652 155.201 541.772V541.892C155.201 542.192 154.961 542.432 154.661 542.432H150.269C150.545 543.14 151.241 543.62 152.009 543.62C152.189 543.62 152.381 543.596 152.549 543.536C152.729 543.488 152.897 543.404 153.053 543.296C153.101 543.26 153.161 543.224 153.209 543.176C153.245 543.152 153.269 543.128 153.293 543.104C153.401 542.984 153.545 542.924 153.701 542.924C153.821 542.924 153.953 542.972 154.049 543.044C154.061 543.068 154.085 543.08 154.109 543.104L154.337 543.332C154.505 543.476 154.577 543.716 154.505 543.932C154.469 544.04 154.409 544.124 154.325 544.196C154.301 544.22 154.277 544.244 154.253 544.256C154.205 544.304 154.157 544.352 154.097 544.4C153.989 544.484 153.881 544.556 153.761 544.628C153.521 544.772 153.269 544.892 153.017 544.976C152.753 545.06 152.477 545.108 152.201 545.12C152.141 545.12 152.069 545.132 152.009 545.132C150.149 545.12 148.649 543.62 148.649 541.76C148.649 539.912 150.149 538.4 152.009 538.4C152.825 538.388 153.617 538.712 154.193 539.288C154.769 539.852 155.117 540.608 155.177 541.412ZM150.353 540.92H153.521C153.269 540.308 152.669 539.9 152.009 539.912C151.313 539.912 150.677 540.308 150.353 540.92ZM161.991 543.38C162.087 543.488 162.147 543.62 162.147 543.764C162.147 543.908 162.087 544.04 161.991 544.136C161.355 544.772 160.503 545.132 159.603 545.12C158.715 545.132 157.863 544.772 157.227 544.148C156.603 543.512 156.243 542.66 156.255 541.76C156.243 540.872 156.603 540.02 157.227 539.384C157.863 538.76 158.715 538.4 159.603 538.4C160.503 538.4 161.355 538.76 161.991 539.384C162.195 539.6 162.195 539.936 161.991 540.152L161.559 540.584L161.331 540.608H161.295C161.163 540.608 161.019 540.548 160.923 540.452C160.575 540.104 160.095 539.912 159.603 539.912C159.111 539.912 158.643 540.104 158.295 540.452C157.947 540.8 157.755 541.268 157.755 541.76C157.755 542.252 157.947 542.732 158.295 543.08C158.643 543.428 159.111 543.62 159.603 543.62C160.095 543.62 160.575 543.428 160.923 543.08L161.043 542.948L161.271 542.924H161.295C161.439 542.924 161.583 542.972 161.679 543.08L161.991 543.38ZM169.767 541.412C169.779 541.532 169.791 541.652 169.791 541.772V541.892C169.791 542.192 169.551 542.432 169.251 542.432H164.859C165.135 543.14 165.831 543.62 166.599 543.62C166.779 543.62 166.971 543.596 167.139 543.536C167.319 543.488 167.487 543.404 167.643 543.296C167.691 543.26 167.751 543.224 167.799 543.176C167.835 543.152 167.859 543.128 167.883 543.104C167.991 542.984 168.135 542.924 168.291 542.924C168.411 542.924 168.543 542.972 168.639 543.044C168.651 543.068 168.675 543.08 168.699 543.104L168.927 543.332C169.095 543.476 169.167 543.716 169.095 543.932C169.059 544.04 168.999 544.124 168.915 544.196C168.891 544.22 168.867 544.244 168.843 544.256C168.795 544.304 168.747 544.352 168.687 544.4C168.579 544.484 168.471 544.556 168.351 544.628C168.111 544.772 167.859 544.892 167.607 544.976C167.343 545.06 167.067 545.108 166.791 545.12C166.731 545.12 166.659 545.132 166.599 545.132C164.739 545.12 163.239 543.62 163.239 541.76C163.239 539.912 164.739 538.4 166.599 538.4C167.415 538.388 168.207 538.712 168.783 539.288C169.359 539.852 169.707 540.608 169.767 541.412ZM164.943 540.92H168.111C167.859 540.308 167.259 539.9 166.599 539.912C165.903 539.912 165.267 540.308 164.943 540.92ZM171.04 539.048C171.04 538.748 171.28 538.508 171.58 538.508H172.012C172.312 538.508 172.552 538.748 172.552 539.048V544.484C172.552 544.772 172.312 545.024 172.012 545.024H171.58C171.28 545.024 171.04 544.772 171.04 544.484V539.048ZM171.796 538.124C171.28 538.124 170.872 537.704 170.872 537.2C170.872 536.684 171.28 536.264 171.796 536.264C172.312 536.264 172.732 536.684 172.732 537.2C172.732 537.704 172.312 538.124 171.796 538.124ZM179.76 538.76C179.856 538.904 179.88 539.096 179.808 539.264L177.528 544.688C177.444 544.892 177.252 545.012 177.036 545.012H176.472C176.256 545.012 176.052 544.892 175.968 544.688L173.7 539.252C173.628 539.096 173.652 538.904 173.748 538.748C173.844 538.604 174.012 538.508 174.192 538.508H174.66C174.876 538.508 175.068 538.64 175.152 538.844L176.748 542.648L178.344 538.844C178.428 538.64 178.632 538.508 178.848 538.508H179.304C179.496 538.508 179.664 538.604 179.76 538.76ZM187.17 541.412C187.182 541.532 187.194 541.652 187.194 541.772V541.892C187.194 542.192 186.954 542.432 186.654 542.432H182.262C182.538 543.14 183.234 543.62 184.002 543.62C184.182 543.62 184.374 543.596 184.542 543.536C184.722 543.488 184.89 543.404 185.046 543.296C185.094 543.26 185.154 543.224 185.202 543.176C185.238 543.152 185.262 543.128 185.286 543.104C185.394 542.984 185.538 542.924 185.694 542.924C185.814 542.924 185.946 542.972 186.042 543.044C186.054 543.068 186.078 543.08 186.102 543.104L186.33 543.332C186.498 543.476 186.57 543.716 186.498 543.932C186.462 544.04 186.402 544.124 186.318 544.196C186.294 544.22 186.27 544.244 186.246 544.256C186.198 544.304 186.15 544.352 186.09 544.4C185.982 544.484 185.874 544.556 185.754 544.628C185.514 544.772 185.262 544.892 185.01 544.976C184.746 545.06 184.47 545.108 184.194 545.12C184.134 545.12 184.062 545.132 184.002 545.132C182.142 545.12 180.642 543.62 180.642 541.76C180.642 539.912 182.142 538.4 184.002 538.4C184.818 538.388 185.61 538.712 186.186 539.288C186.762 539.852 187.11 540.608 187.17 541.412ZM182.346 540.92H185.514C185.262 540.308 184.662 539.9 184.002 539.912C183.306 539.912 182.67 540.308 182.346 540.92ZM194.427 536.18C194.727 536.18 194.967 536.42 194.967 536.708V544.484C194.967 544.772 194.727 545.012 194.427 545.012H193.995C193.731 545.012 193.503 544.82 193.467 544.556C192.915 544.928 192.267 545.132 191.607 545.132C189.747 545.132 188.247 543.62 188.247 541.772C188.247 539.912 189.747 538.412 191.607 538.4C192.267 538.4 192.903 538.604 193.455 538.964V536.708C193.455 536.42 193.695 536.18 193.995 536.18H194.427ZM193.455 541.784V541.748C193.443 540.728 192.615 539.912 191.607 539.912C190.575 539.912 189.747 540.74 189.747 541.76C189.747 542.792 190.575 543.62 191.607 543.62C192.627 543.62 193.443 542.792 193.455 541.784ZM205.832 538.76C205.928 538.904 205.94 539.096 205.868 539.264L202.616 547.028C202.544 547.22 202.34 547.352 202.124 547.352H201.656C201.476 547.352 201.308 547.268 201.212 547.112C201.116 546.968 201.092 546.776 201.164 546.608L202.052 544.484L199.868 539.252C199.796 539.084 199.82 538.904 199.916 538.748C200.012 538.604 200.18 538.508 200.36 538.508H200.828C201.044 538.508 201.236 538.64 201.32 538.844L202.868 542.528L204.416 538.844C204.5 538.64 204.692 538.508 204.908 538.508H205.376C205.556 538.508 205.724 538.604 205.832 538.76ZM210.064 538.4C211.912 538.412 213.424 539.912 213.424 541.76C213.424 543.62 211.912 545.12 210.064 545.132C208.204 545.12 206.704 543.62 206.704 541.76C206.704 539.912 208.204 538.412 210.064 538.4ZM210.064 543.62C211.084 543.62 211.912 542.792 211.912 541.76C211.912 540.74 211.084 539.912 210.064 539.912C209.032 539.912 208.204 540.74 208.204 541.76C208.204 542.792 209.032 543.62 210.064 543.62ZM220.16 538.508C220.448 538.508 220.688 538.748 220.688 539.048V544.484C220.688 544.772 220.448 545.012 220.16 545.012H219.728C219.524 545.012 219.332 544.904 219.248 544.724C218.78 544.988 218.24 545.132 217.7 545.144C216.056 545.144 214.724 543.848 214.724 542.252V539.048C214.724 538.748 214.964 538.508 215.252 538.508H215.684C215.984 538.508 216.224 538.748 216.224 539.048V542.252C216.224 543.02 216.884 543.632 217.7 543.632C218.516 543.632 219.188 543.02 219.188 542.252V539.048C219.188 538.748 219.428 538.508 219.728 538.508H220.16ZM226.735 538.868C226.795 539 226.795 539.168 226.723 539.3L226.531 539.696C226.435 539.876 226.255 539.996 226.051 539.996C225.979 539.996 225.919 539.984 225.859 539.96H225.835C225.811 539.948 225.799 539.948 225.775 539.936C225.751 539.936 225.739 539.936 225.715 539.924C225.691 539.924 225.679 539.924 225.655 539.912C225.631 539.912 225.607 539.912 225.595 539.912C225.571 539.9 225.547 539.9 225.523 539.9C225.499 539.9 225.487 539.9 225.463 539.9C225.439 539.9 225.427 539.9 225.403 539.9C224.587 539.9 223.927 540.512 223.927 541.28V544.484C223.927 544.772 223.687 545.012 223.387 545.024H222.955C222.667 545.012 222.427 544.772 222.427 544.484V539.048C222.427 538.748 222.667 538.508 222.955 538.508H223.387C223.591 538.508 223.783 538.628 223.867 538.808C224.335 538.532 224.863 538.388 225.403 538.388C225.751 538.388 226.087 538.448 226.411 538.556C226.567 538.616 226.675 538.724 226.735 538.868ZM237.806 541.412C237.818 541.532 237.83 541.652 237.83 541.772V541.892C237.83 542.192 237.59 542.432 237.29 542.432H232.898C233.174 543.14 233.87 543.62 234.638 543.62C234.818 543.62 235.01 543.596 235.178 543.536C235.358 543.488 235.526 543.404 235.682 543.296C235.73 543.26 235.79 543.224 235.838 543.176C235.874 543.152 235.898 543.128 235.922 543.104C236.03 542.984 236.174 542.924 236.33 542.924C236.45 542.924 236.582 542.972 236.678 543.044C236.69 543.068 236.714 543.08 236.738 543.104L236.966 543.332C237.134 543.476 237.206 543.716 237.134 543.932C237.098 544.04 237.038 544.124 236.954 544.196C236.93 544.22 236.906 544.244 236.882 544.256C236.834 544.304 236.786 544.352 236.726 544.4C236.618 544.484 236.51 544.556 236.39 544.628C236.15 544.772 235.898 544.892 235.646 544.976C235.382 545.06 235.106 545.108 234.83 545.12C234.77 545.12 234.698 545.132 234.638 545.132C232.778 545.12 231.278 543.62 231.278 541.76C231.278 539.912 232.778 538.4 234.638 538.4C235.454 538.388 236.246 538.712 236.822 539.288C237.398 539.852 237.746 540.608 237.806 541.412ZM232.982 540.92H236.15C235.898 540.308 235.298 539.9 234.638 539.912C233.942 539.912 233.306 540.308 232.982 540.92ZM246.012 538.388C247.536 538.388 248.784 539.684 248.784 541.28V544.484C248.784 544.772 248.544 545.012 248.244 545.024H247.812C247.524 545.012 247.284 544.772 247.272 544.484V541.28C247.272 540.5 246.72 539.9 246.012 539.9C245.304 539.9 244.74 540.5 244.74 541.28V544.484C244.74 544.772 244.5 545.012 244.212 545.024H243.78C243.48 545.012 243.24 544.772 243.24 544.484V541.28C243.24 540.5 242.688 539.9 241.968 539.9C241.26 539.9 240.708 540.5 240.708 541.28V544.484C240.708 544.772 240.468 545.012 240.168 545.024H239.736C239.448 545.012 239.208 544.772 239.208 544.484V539.048C239.208 538.748 239.448 538.508 239.736 538.508H240.168C240.348 538.508 240.516 538.604 240.624 538.76C241.032 538.52 241.5 538.388 241.968 538.388C242.748 538.4 243.48 538.736 243.996 539.3C244.512 538.736 245.244 538.4 246.012 538.388ZM256.267 538.508C256.567 538.508 256.807 538.748 256.807 539.048V544.484C256.807 544.772 256.567 545.012 256.267 545.012H255.835C255.571 545.012 255.343 544.82 255.307 544.556C254.755 544.928 254.107 545.132 253.447 545.132C251.587 545.12 250.087 543.62 250.087 541.76C250.087 539.912 251.587 538.412 253.447 538.4C254.107 538.4 254.755 538.604 255.307 538.964C255.343 538.712 255.571 538.508 255.835 538.508H256.267ZM255.295 541.784V541.748C255.283 540.728 254.455 539.912 253.447 539.912C252.415 539.912 251.587 540.74 251.587 541.76C251.587 542.792 252.415 543.62 253.447 543.62C254.455 543.62 255.283 542.792 255.295 541.784ZM258.321 539.048C258.321 538.748 258.561 538.508 258.861 538.508H259.293C259.593 538.508 259.833 538.748 259.833 539.048V544.484C259.833 544.772 259.593 545.024 259.293 545.024H258.861C258.561 545.024 258.321 544.772 258.321 544.484V539.048ZM259.077 538.124C258.561 538.124 258.153 537.704 258.153 537.2C258.153 536.684 258.561 536.264 259.077 536.264C259.593 536.264 260.013 536.684 260.013 537.2C260.013 537.704 259.593 538.124 259.077 538.124ZM261.567 536.708C261.567 536.42 261.807 536.18 262.095 536.18H262.527C262.827 536.18 263.067 536.42 263.067 536.708V544.484C263.067 544.772 262.827 545.024 262.527 545.024H262.095C261.807 545.024 261.567 544.772 261.567 544.484V536.708ZM265.586 545.132C265.07 545.132 264.662 544.712 264.662 544.196C264.662 543.68 265.07 543.26 265.586 543.26C266.102 543.26 266.522 543.68 266.522 544.196C266.522 544.712 266.102 545.132 265.586 545.132ZM264.83 536.708C264.83 536.42 265.07 536.18 265.37 536.18H265.802C266.102 536.18 266.342 536.42 266.342 536.708V542.168C266.342 542.456 266.102 542.696 265.802 542.696H265.37C265.07 542.696 264.83 542.456 264.83 542.168V536.708Z" fill="white"/>
<path d="M74 540.08V541C73.9988 543.156 73.3005 545.255 72.0093 546.982C70.7182 548.709 68.9033 549.972 66.8354 550.584C64.7674 551.195 62.5573 551.122 60.5345 550.374C58.5117 549.627 56.7847 548.246 55.611 546.437C54.4373 544.628 53.8798 542.488 54.0217 540.336C54.1636 538.184 54.9972 536.136 56.3983 534.497C57.7994 532.858 59.6928 531.715 61.7962 531.24C63.8996 530.765 66.1003 530.982 68.07 531.86" fill="#296F5B"/>
<path d="M74 533L64 543.01L61 540.01" fill="#296F5B"/>
<path d="M74 540.08V541C73.9988 543.156 73.3005 545.255 72.0093 546.982C70.7182 548.709 68.9033 549.972 66.8354 550.584C64.7674 551.195 62.5573 551.122 60.5345 550.374C58.5117 549.627 56.7847 548.246 55.611 546.437C54.4373 544.628 53.8798 542.488 54.0217 540.336C54.1636 538.184 54.9972 536.136 56.3983 534.497C57.7994 532.858 59.6928 531.715 61.7962 531.24C63.8996 530.765 66.1003 530.982 68.07 531.86M74 533L64 543.01L61 540.01" stroke="white" stroke-width="2" stroke-linecap="round" stroke-linejoin="round"/>
</svg>
