<?xml version="1.0" encoding="UTF-8"?>
<svg id="Layer_2" data-name="Layer 2" xmlns="http://www.w3.org/2000/svg" viewBox="0 0 32 32">
  <defs>
    <style>
      .cls-1 {
        fill: #fff;
      }

      .cls-2 {
        fill: #231f20;
      }
    </style>
  </defs>
  <g id="Layer_1-2" data-name="Layer 1">
    <g>
      <rect class="cls-2" width="32" height="32"/>
      <g>
        <path class="cls-1" d="M19.82,16.67c-.19,5.39-8.04,4.97-7.43-.7.57-4.96,7.63-4.33,7.43.7Z"/>
        <path class="cls-1" d="M3.16,23.8c5.18,13.69,22.61-3.25,17.98-8.5,1.18,11.7-10.81,11.5-17.98,8.5Z"/>
        <path class="cls-1" d="M27.71,7.28c-5.29-11.08-23.24,3.37-16.02,12.29C5.95,8.56,20.23,4.2,27.71,7.28Z"/>
        <path class="cls-1" d="M25.62,27.84c9.86-6.69-4.84-24.05-12.9-16.2,10.17-5.88,14.85,7.22,12.9,16.2Z"/>
        <path class="cls-1" d="M7.15,3.87c-9.77,6.26,3.64,25.2,11.94,17.31C8.83,27.18,4.75,12.08,7.15,3.87Z"/>
      </g>
    </g>
  </g>
</svg>