<svg width="300" height="19" viewBox="0 0 300 19" fill="none" xmlns="http://www.w3.org/2000/svg">
<g clip-path="url(#clip0_108_569)">
<path fill-rule="evenodd" clip-rule="evenodd" d="M11.265 0.179688L6.82062 7.32098L8.42646 8.71365L7.18526 10.7597L4.73969 9.91467L0.776635 17.3338L5.10109 14.1954L3.59627 16.6759L1.15184 17.7655L2.90024 17.8233L-1.59964 25.241C-2.21891 26.2619 -2.123 27.563 -1.36074 28.482L9.5629 41.6521C10.6888 43.0094 12.7741 43.0015 13.8895 41.6351L24.6401 28.4679C25.3857 27.5547 25.4797 26.2725 24.8753 25.2604L20.4252 17.8082L21.8206 17.7621L19.8816 16.8978L18.7852 15.0618L21.9159 17.3338L17.9528 9.91467L16.095 10.5566L14.8557 8.48122L16.1935 7.32098L11.7492 0.179688L12.3541 5.96081C11.7881 5.83082 11.1875 5.87671 10.6456 6.09873L11.265 0.179688ZM12.3541 5.96081L12.8041 10.2605L14.8557 8.48122L14.1228 7.25392C13.7043 6.55318 13.0557 6.12193 12.3541 5.96081ZM16.095 10.5566L13.7121 11.38L18.7852 15.0618L16.095 10.5566ZM19.8816 16.8978L12.5619 13.6351L13.4132 18.0399L20.4252 17.8082L19.8816 16.8978ZM2.90024 17.8233L9.55924 18.0434L10.4105 13.6386L3.59627 16.6759L2.90024 17.8233ZM5.10109 14.1954L7.18526 10.7597L8.9804 11.38L5.10109 14.1954ZM10.6456 6.09873L10.2101 10.2605L8.42646 8.71365L9.32215 7.23722C9.65241 6.69282 10.1216 6.31342 10.6456 6.09873ZM14.1228 48.9604C13.0403 47.1476 10.4173 47.1386 9.32215 48.9438L-1.59964 66.9475C-2.21891 67.9683 -2.123 69.2693 -1.36074 70.1885L9.5629 83.3586C10.6888 84.716 12.7741 84.708 13.8895 83.3417L24.6401 70.1744C25.3857 69.2614 25.4797 67.9791 24.8753 66.9668L14.1228 48.9604Z" fill="white"/>
</g>
<path d="M54.6 8.184C56.04 9.144 57 10.776 57 12.648C57 15.6 54.6 18 51.648 18H40.2V1.2L50.784 1.2C53.28 1.2 55.32 3.24 55.32 5.736C55.32 6.648 55.056 7.488 54.6 8.184ZM43.2 4.2V7.272H50.808C51.648 7.272 52.344 6.576 52.344 5.736C52.344 4.896 51.648 4.2 50.808 4.2H43.2ZM51.648 15V14.976C52.944 14.976 54 13.92 54 12.624C54 11.328 52.944 10.272 51.648 10.272H43.2V15H51.648ZM74.5294 10.248L76.9294 15.048L78.4654 18.048H75.1054L73.5694 15.048L71.9614 11.904L71.8894 11.76C71.3614 10.896 70.4254 10.32 69.3454 10.32H66.3454V18.048H63.3454V1.248L73.9534 1.248C75.2014 1.248 76.3294 1.752 77.1454 2.568C77.9614 3.384 78.4654 4.512 78.4654 5.76C78.4654 7.584 77.3854 9.168 75.8254 9.888C75.4174 10.08 74.9854 10.2 74.5294 10.248ZM66.3454 7.344L73.9534 7.32C74.1694 7.32 74.3854 7.272 74.5774 7.176C75.1294 6.936 75.4894 6.384 75.4894 5.784C75.4894 5.232 75.2014 4.848 75.0334 4.68C74.8414 4.488 74.4814 4.248 73.9534 4.248L66.3454 4.248V7.344ZM88.4606 18H85.4606V1.2H88.4606V18ZM103.811 4.2C100.835 4.2 98.4113 6.624 98.4113 9.6C98.4113 12.576 100.835 15 103.811 15H109.211V11.784H103.811V8.784H112.211V18H103.811C99.1793 18 95.4113 14.232 95.4113 9.6C95.4113 4.968 99.1793 1.2 103.811 1.2L112.211 1.2V4.2H103.811ZM132.967 1.2L135.967 1.2V18H132.967V10.296H122.167V18H119.167V1.2H122.167V7.296L132.967 7.296V1.2ZM142.922 1.224L159.698 1.224V4.224L152.81 4.224V18.024H149.81V4.224H142.922V1.224ZM178.053 11.568H166.677V8.568H178.053V11.568ZM198.818 3.504L201.818 1.2V18H198.818V7.296L195.866 9.552L193.418 11.448L190.97 9.552L188.018 7.296V18H185.018V1.2L188.018 3.504L193.418 7.656L198.818 3.504ZM223.414 15L224.95 18H221.59L220.054 15L216.382 7.8L212.71 15L211.174 18H207.814L209.35 15L216.382 1.2L223.414 15ZM226.201 1.224L242.977 1.224V4.224H236.089V18.024H233.089V4.224L226.201 4.224V1.224ZM249.956 1.224L266.732 1.224V4.224H259.844V18.024L256.844 18.024V4.224H249.956V1.224ZM284.872 10.248L287.272 15.048L288.808 18.048H285.448L283.912 15.048L282.304 11.904L282.232 11.76C281.704 10.896 280.768 10.32 279.688 10.32H276.688V18.048H273.688V1.248L284.296 1.248C285.544 1.248 286.672 1.752 287.488 2.568C288.304 3.384 288.808 4.512 288.808 5.76C288.808 7.584 287.728 9.168 286.168 9.888C285.76 10.08 285.328 10.2 284.872 10.248ZM276.688 7.344L284.296 7.32C284.512 7.32 284.728 7.272 284.92 7.176C285.472 6.936 285.832 6.384 285.832 5.784C285.832 5.232 285.544 4.848 285.376 4.68C285.184 4.488 284.824 4.248 284.296 4.248H276.688V7.344ZM298.803 18.168H295.803V15.168H298.803V18.168Z" fill="white"/>
<defs>
<clipPath id="clip0_108_569">
<rect width="23" height="18.64" fill="white" transform="translate(0 0.179688)"/>
</clipPath>
</defs>
</svg>
