<svg width="418" height="649" viewBox="0 0 418 649" fill="none" xmlns="http://www.w3.org/2000/svg">
<mask id="path-1-outside-1_112_1141" maskUnits="userSpaceOnUse" x="0" y="0" width="418" height="649" fill="black">
<rect fill="white" width="418" height="649"/>
<path fill-rule="evenodd" clip-rule="evenodd" d="M1 20C1 9.5066 9.50659 1 20 1H398C408.493 1 417 9.50659 417 20V65.7849C417 78.1332 408.908 89.0225 397.085 92.5851C394.646 93.3199 392.398 94.4315 390.387 95.8387C388.212 97.3608 386.122 99.044 384.259 100.936C379.497 105.771 377.215 112.914 378.875 119.818L382.759 135.966C383.145 137.572 383.722 139.07 384.458 140.441C385.756 142.858 387.422 145.086 389.223 147.156C394.969 153.757 404.19 156.69 413.355 153.929C415.171 153.382 417 154.741 417 156.638V629C417 639.493 408.493 648 398 648H20C9.50659 648 1 639.493 1 629V582.388C1 579.022 3.76668 576.313 7.13238 576.384C14.2838 576.534 20.7501 573.508 25.188 568.598C28.603 564.82 31.6116 560.435 33.3473 555.647C34.0433 553.727 34.4383 551.66 34.4747 549.501L34.7562 532.772C34.8105 529.546 34.0578 526.491 32.6843 523.801C31.2187 520.93 29.2743 518.299 27.2664 515.777C22.0892 509.276 14.169 505.035 5.22927 504.847C2.87922 504.797 1 502.878 1 500.527V20ZM412.819 128.489C415.301 127.741 417 125.455 417 122.863V118.96C417 114.71 412.901 111.665 408.833 112.891C405.614 113.86 403.712 117.174 404.498 120.442L405.411 124.237C406.2 127.519 409.587 129.463 412.819 128.489ZM15.3178 545.607C15.2511 549.573 11.9735 552.728 8.00848 552.645C4.11413 552.562 1 549.382 1 545.487V540.933C1 536.899 4.31579 533.652 8.34948 533.737C12.3118 533.821 15.4611 537.092 15.3944 541.054L15.3178 545.607Z"/>
</mask>
<path fill-rule="evenodd" clip-rule="evenodd" d="M1 20C1 9.5066 9.50659 1 20 1H398C408.493 1 417 9.50659 417 20V65.7849C417 78.1332 408.908 89.0225 397.085 92.5851C394.646 93.3199 392.398 94.4315 390.387 95.8387C388.212 97.3608 386.122 99.044 384.259 100.936C379.497 105.771 377.215 112.914 378.875 119.818L382.759 135.966C383.145 137.572 383.722 139.07 384.458 140.441C385.756 142.858 387.422 145.086 389.223 147.156C394.969 153.757 404.19 156.69 413.355 153.929C415.171 153.382 417 154.741 417 156.638V629C417 639.493 408.493 648 398 648H20C9.50659 648 1 639.493 1 629V582.388C1 579.022 3.76668 576.313 7.13238 576.384C14.2838 576.534 20.7501 573.508 25.188 568.598C28.603 564.82 31.6116 560.435 33.3473 555.647C34.0433 553.727 34.4383 551.66 34.4747 549.501L34.7562 532.772C34.8105 529.546 34.0578 526.491 32.6843 523.801C31.2187 520.93 29.2743 518.299 27.2664 515.777C22.0892 509.276 14.169 505.035 5.22927 504.847C2.87922 504.797 1 502.878 1 500.527V20ZM412.819 128.489C415.301 127.741 417 125.455 417 122.863V118.96C417 114.71 412.901 111.665 408.833 112.891C405.614 113.86 403.712 117.174 404.498 120.442L405.411 124.237C406.2 127.519 409.587 129.463 412.819 128.489ZM15.3178 545.607C15.2511 549.573 11.9735 552.728 8.00848 552.645C4.11413 552.562 1 549.382 1 545.487V540.933C1 536.899 4.31579 533.652 8.34948 533.737C12.3118 533.821 15.4611 537.092 15.3944 541.054L15.3178 545.607Z" fill="#1A2122"/>
<path d="M378.875 119.818L379.848 119.584L378.875 119.818ZM382.759 135.966L383.731 135.732L382.759 135.966ZM34.4747 549.501L35.4745 549.517L34.4747 549.501ZM34.7562 532.772L35.7561 532.788L34.7562 532.772ZM15.3944 541.054L14.3946 541.038L15.3944 541.054ZM32.6843 523.801L33.575 523.346L32.6843 523.801ZM27.2664 515.777L28.0487 515.154L27.2664 515.777ZM25.188 568.598L24.4461 567.928L25.188 568.598ZM33.3473 555.647L32.4072 555.306L33.3473 555.647ZM390.387 95.8387L390.96 96.658L390.387 95.8387ZM384.259 100.936L383.547 100.234L384.259 100.936ZM384.458 140.441L383.577 140.914L384.458 140.441ZM389.223 147.156L388.469 147.812L389.223 147.156ZM404.498 120.442L405.471 120.208L404.498 120.442ZM405.411 124.237L404.439 124.471L405.411 124.237ZM20 0C8.9543 0 0 8.95431 0 20H2C2 10.0589 10.0589 2 20 2V0ZM398 0H20V2H398V0ZM418 20C418 8.95431 409.046 0 398 0V2C407.941 2 416 10.0589 416 20H418ZM418 65.7849V20H416V65.7849H418ZM396.797 91.6276C394.253 92.394 391.909 93.5531 389.814 95.0194L390.96 96.658C392.887 95.3099 395.04 94.2458 397.374 93.5426L396.797 91.6276ZM383.547 100.234C378.559 105.298 376.157 112.789 377.903 120.051L379.848 119.584C378.274 113.039 380.435 106.244 384.972 101.637L383.547 100.234ZM377.903 120.051L381.787 136.2L383.731 135.732L379.848 119.584L377.903 120.051ZM381.787 136.2C382.193 137.889 382.8 139.467 383.577 140.914L385.339 139.968C384.643 138.673 384.097 137.256 383.731 135.732L381.787 136.2ZM388.469 147.812C394.471 154.708 404.098 157.762 413.643 154.886L413.066 152.971C404.281 155.618 395.468 152.807 389.977 146.499L388.469 147.812ZM418 629V156.638H416V629H418ZM398 649C409.046 649 418 640.046 418 629H416C416 638.941 407.941 647 398 647V649ZM20 649H398V647H20V649ZM0 629C0 640.046 8.9543 649 20 649V647C10.0589 647 2 638.941 2 629H0ZM0 582.388V629H2V582.388H0ZM24.4461 567.928C20.195 572.631 14.0034 575.528 7.15346 575.384L7.1113 577.383C14.5642 577.541 21.3053 574.385 25.9298 569.269L24.4461 567.928ZM33.4748 549.484C33.4403 551.531 33.0659 553.489 32.4072 555.306L34.2874 555.988C35.0207 553.965 35.4363 551.788 35.4745 549.517L33.4748 549.484ZM33.7563 532.755L33.4748 549.484L35.4745 549.517L35.7561 532.788L33.7563 532.755ZM31.7936 524.255C33.0946 526.804 33.8078 529.697 33.7563 532.755L35.7561 532.788C35.8132 529.395 35.0209 526.179 33.575 523.346L31.7936 524.255ZM5.20818 505.847C13.8376 506.029 21.4837 510.12 26.4841 516.4L28.0487 515.154C22.6948 508.431 14.5004 504.042 5.25035 503.847L5.20818 505.847ZM0 20V500.527H2V20H0ZM418 122.863V118.96H416V122.863H418ZM406.383 124.003L405.471 120.208L403.526 120.676L404.439 124.471L406.383 124.003ZM0 540.933V545.487H2V540.933H0ZM16.3177 545.624L16.3943 541.071L14.3946 541.038L14.318 545.59L16.3177 545.624ZM8.3284 534.737C11.7402 534.809 14.452 537.625 14.3946 541.038L16.3943 541.071C16.4702 536.558 12.8834 532.833 8.37056 532.737L8.3284 534.737ZM2 540.933C2 537.459 4.85511 534.664 8.3284 534.737L8.37056 532.737C3.77646 532.641 0 536.338 0 540.933H2ZM8.02956 551.645C4.67916 551.574 2 548.838 2 545.487H0C0 549.926 3.5491 553.551 7.98739 553.644L8.02956 551.645ZM418 118.96C418 114.04 413.254 110.514 408.544 111.933L409.121 113.848C412.548 112.815 416 115.381 416 118.96H418ZM416 122.863C416 125.014 414.59 126.911 412.531 127.531L413.108 129.446C416.012 128.571 418 125.896 418 122.863H416ZM5.25035 503.847C3.44425 503.809 2 502.334 2 500.527H0C0 503.422 2.31419 505.786 5.20818 505.847L5.25035 503.847ZM33.575 523.346C32.0624 520.383 30.0668 517.689 28.0487 515.154L26.4841 516.4C28.4818 518.909 30.375 521.476 31.7936 524.255L33.575 523.346ZM25.9298 569.269C29.4013 565.428 32.4945 560.934 34.2874 555.988L32.4072 555.306C30.7288 559.936 27.8047 564.212 24.4461 567.928L25.9298 569.269ZM2 582.388C2 579.582 4.30601 577.324 7.11129 577.383L7.15347 575.384C3.22735 575.301 0 578.461 0 582.388H2ZM413.643 154.886C414.817 154.533 416 155.411 416 156.638H418C418 154.071 415.524 152.231 413.066 152.971L413.643 154.886ZM7.98739 553.644C12.5063 553.74 16.2416 550.143 16.3177 545.624L14.318 545.59C14.2605 549.002 11.4408 551.717 8.02956 551.645L7.98739 553.644ZM389.814 95.0194C387.603 96.5666 385.463 98.2883 383.547 100.234L384.972 101.637C386.782 99.7997 388.821 98.155 390.96 96.658L389.814 95.0194ZM383.577 140.914C384.922 143.417 386.637 145.707 388.469 147.812L389.977 146.499C388.207 144.465 386.591 142.299 385.339 139.968L383.577 140.914ZM408.544 111.933C404.818 113.056 402.616 116.892 403.526 120.676L405.471 120.208C404.809 117.455 406.41 114.665 409.121 113.848L408.544 111.933ZM404.439 124.471C405.362 128.312 409.325 130.586 413.108 129.446L412.531 127.531C409.848 128.34 407.038 126.727 406.383 124.003L404.439 124.471ZM416 65.7849C416 77.692 408.197 88.1923 396.797 91.6276L397.374 93.5426C409.619 89.8527 418 78.5743 418 65.7849H416Z" fill="#1F1F1F" mask="url(#path-1-outside-1_112_1141)"/>
</svg>
