<svg width="22" height="16" viewBox="0 0 22 16" fill="none" xmlns="http://www.w3.org/2000/svg">
<path d="M2.2 16C1.595 16 1.07708 15.8042 0.64625 15.4125C0.215417 15.0208 0 14.55 0 14V2C0 1.45 0.215417 0.979167 0.64625 0.5875C1.07708 0.195833 1.595 0 2.2 0H19.8C20.405 0 20.9229 0.195833 21.3538 0.5875C21.7846 0.979167 22 1.45 22 2V14C22 14.55 21.7846 15.0208 21.3538 15.4125C20.9229 15.8042 20.405 16 19.8 16H2.2ZM11 9L2.2 4V14H19.8V4L11 9ZM11 7L19.8 2H2.2L11 7ZM2.2 4V2V14V4Z" fill="#0F030D"/>
</svg>
