<svg width="23" height="19" viewBox="0 0 23 19" fill="none" xmlns="http://www.w3.org/2000/svg">
<g clip-path="url(#clip0_151_2186)">
<path fill-rule="evenodd" clip-rule="evenodd" d="M11.265 0L6.82062 7.14129L8.42646 8.53396L7.18526 10.58L4.7397 9.73498L0.776635 17.1541L5.10109 14.0157L3.59627 16.4962L1.15184 17.5858L2.90024 17.6436L-1.59964 25.0614C-2.21891 26.0822 -2.123 27.3833 -1.36074 28.3023L9.5629 41.4724C10.6888 42.8298 12.7741 42.8218 13.8895 41.4554L24.6401 28.2882C25.3857 27.375 25.4797 26.0928 24.8753 25.0807L20.4252 17.6285L21.8206 17.5824L19.8816 16.7181L18.7852 14.8821L21.9159 17.1541L17.9528 9.73498L16.095 10.3769L14.8557 8.30153L16.1935 7.14129L11.7492 0L12.3541 5.78113C11.7881 5.65113 11.1875 5.69702 10.6456 5.91904L11.265 0ZM12.3541 5.78113L12.8041 10.0808L14.8557 8.30153L14.1228 7.07423C13.7043 6.37349 13.0557 5.94225 12.3541 5.78113ZM16.095 10.3769L13.7121 11.2003L18.7852 14.8821L16.095 10.3769ZM19.8816 16.7181L12.5619 13.4554L13.4132 17.8602L20.4252 17.6285L19.8816 16.7181ZM2.90024 17.6436L9.55924 17.8637L10.4105 13.4589L3.59627 16.4962L2.90024 17.6436ZM5.10109 14.0157L7.18526 10.58L8.9804 11.2003L5.10109 14.0157ZM10.6456 5.91904L10.2101 10.0808L8.42646 8.53396L9.32215 7.05753C9.65241 6.51313 10.1216 6.13373 10.6456 5.91904ZM14.1228 48.7807C13.0403 46.9679 10.4173 46.9589 9.32215 48.7641L-1.59964 66.7678C-2.21891 67.7887 -2.123 69.0896 -1.36074 70.0089L9.5629 83.1789C10.6888 84.5363 12.7741 84.5283 13.8895 83.162L24.6401 69.9947C25.3857 69.0817 25.4797 67.7994 24.8753 66.7871L14.1228 48.7807Z" fill="white"/>
</g>
<defs>
<clipPath id="clip0_151_2186">
<rect width="23" height="18.64" fill="white"/>
</clipPath>
</defs>
</svg>
