<svg width="40" height="41" viewBox="0 0 40 41" fill="none" xmlns="http://www.w3.org/2000/svg">
<path d="M29.1673 11.333H29.184M11.6673 3.83301H28.334C32.9364 3.83301 36.6673 7.56397 36.6673 12.1663V28.833C36.6673 33.4354 32.9364 37.1663 28.334 37.1663H11.6673C7.06494 37.1663 3.33398 33.4354 3.33398 28.833V12.1663C3.33398 7.56397 7.06494 3.83301 11.6673 3.83301ZM26.6673 19.4497C26.873 20.8368 26.6361 22.2534 25.9902 23.498C25.3444 24.7427 24.3226 25.752 23.07 26.3825C21.8175 27.0129 20.3981 27.2323 19.0136 27.0096C17.6292 26.7868 16.3503 26.1331 15.3587 25.1416C14.3672 24.1501 13.7135 22.8711 13.4908 21.4867C13.268 20.1023 13.4874 18.6828 14.1179 17.4303C14.7483 16.1778 15.7576 15.1559 17.0023 14.5101C18.247 13.8642 19.6636 13.6273 21.0506 13.833C22.4655 14.0428 23.7754 14.7021 24.7868 15.7135C25.7982 16.7249 26.4575 18.0348 26.6673 19.4497Z" stroke="white" stroke-width="3" stroke-linecap="round" stroke-linejoin="round"/>
</svg>
