<svg width="185" height="76" viewBox="0 0 185 76" fill="none" xmlns="http://www.w3.org/2000/svg">
<g filter="url(#filter0_dd_151_2230)">
<rect x="11" y="7" width="163" height="54" rx="15" fill="#2C6669"/>
<path d="M35.352 36.056C35.46 36.176 35.508 36.356 35.472 36.512C35.448 36.632 35.388 36.74 35.292 36.824C35.268 36.848 35.244 36.872 35.22 36.884C35.172 36.932 35.124 36.98 35.076 37.016C34.98 37.1 34.884 37.184 34.776 37.256C34.572 37.412 34.356 37.544 34.128 37.652C33.9 37.76 33.66 37.856 33.42 37.928C33.18 38 32.928 38.06 32.676 38.096C32.484 38.12 32.292 38.132 32.1 38.132C30.876 38.132 29.712 37.652 28.86 36.788C27.996 35.924 27.516 34.76 27.528 33.548C27.516 32.336 27.996 31.172 28.86 30.32C29.712 29.456 30.876 28.976 32.1 28.976C33.312 28.976 34.476 29.456 35.328 30.32C35.544 30.524 35.544 30.86 35.328 31.076L34.896 31.508L34.68 31.532H34.644C34.5 31.532 34.368 31.484 34.272 31.376C33.696 30.8 32.904 30.476 32.1 30.488C31.284 30.476 30.504 30.8 29.928 31.376C29.352 31.952 29.028 32.732 29.028 33.548C29.028 34.364 29.352 35.144 29.928 35.72C30.504 36.296 31.284 36.62 32.088 36.62C32.568 36.62 33.036 36.512 33.468 36.296L31.848 34.676C31.728 34.568 31.668 34.424 31.656 34.268C31.656 34.124 31.716 33.98 31.824 33.884C31.848 33.86 31.872 33.824 31.908 33.8C31.968 33.728 32.04 33.668 32.088 33.608C32.196 33.488 32.352 33.428 32.508 33.428C32.652 33.428 32.784 33.476 32.88 33.584L35.268 35.96L35.28 35.972C35.304 35.996 35.328 36.032 35.352 36.056ZM43.1446 34.412C43.1566 34.532 43.1686 34.652 43.1686 34.772V34.892C43.1686 35.192 42.9286 35.432 42.6286 35.432H38.2366C38.5126 36.14 39.2086 36.62 39.9766 36.62C40.1566 36.62 40.3486 36.596 40.5166 36.536C40.6966 36.488 40.8646 36.404 41.0206 36.296C41.0686 36.26 41.1286 36.224 41.1766 36.176C41.2126 36.152 41.2366 36.128 41.2606 36.104C41.3686 35.984 41.5126 35.924 41.6686 35.924C41.7886 35.924 41.9206 35.972 42.0166 36.044C42.0286 36.068 42.0526 36.08 42.0766 36.104L42.3046 36.332C42.4726 36.476 42.5446 36.716 42.4726 36.932C42.4366 37.04 42.3766 37.124 42.2926 37.196C42.2686 37.22 42.2446 37.244 42.2206 37.256C42.1726 37.304 42.1246 37.352 42.0646 37.4C41.9566 37.484 41.8486 37.556 41.7286 37.628C41.4886 37.772 41.2366 37.892 40.9846 37.976C40.7206 38.06 40.4446 38.108 40.1686 38.12C40.1086 38.12 40.0366 38.132 39.9766 38.132C38.1166 38.12 36.6166 36.62 36.6166 34.76C36.6166 32.912 38.1166 31.4 39.9766 31.4C40.7926 31.388 41.5846 31.712 42.1606 32.288C42.7366 32.852 43.0846 33.608 43.1446 34.412ZM38.3206 33.92H41.4886C41.2366 33.308 40.6366 32.9 39.9766 32.912C39.2806 32.912 38.6446 33.308 38.3206 33.92ZM48.534 36.74C48.75 36.956 48.75 37.292 48.534 37.508C48.138 37.904 47.598 38.132 47.034 38.132C45.87 38.12 44.922 37.172 44.91 36.008V33.02H44.754C44.466 33.02 44.226 32.78 44.226 32.48V32.048C44.226 31.748 44.466 31.508 44.754 31.508H44.91V30.656C44.91 30.416 45.066 30.212 45.282 30.14L45.774 29.972H45.87C45.99 29.972 46.098 30.008 46.194 30.068C46.338 30.176 46.422 30.332 46.422 30.512V31.508H47.334C47.634 31.508 47.874 31.748 47.874 32.048V32.48C47.874 32.78 47.634 33.02 47.334 33.02H46.422V36.008C46.422 36.344 46.698 36.62 47.034 36.62C47.142 36.62 47.25 36.596 47.346 36.536C47.37 36.524 47.406 36.5 47.43 36.476C47.442 36.476 47.442 36.464 47.454 36.452C47.562 36.344 47.706 36.284 47.85 36.284C47.994 36.284 48.138 36.344 48.234 36.44L48.534 36.74ZM58.7194 33.524C59.7634 33.968 60.3874 34.76 60.3874 35.648C60.3874 37.016 58.8274 38.132 56.9074 38.132C56.6674 38.132 56.4274 38.108 56.1994 38.072C55.9714 38.048 55.7434 38 55.5274 37.928C55.3114 37.868 55.1074 37.784 54.9154 37.688C54.7234 37.592 54.5434 37.484 54.3754 37.352C54.2074 37.232 54.0634 37.088 53.9314 36.932C53.8594 36.86 53.8114 36.776 53.7514 36.692C53.7274 36.644 53.7034 36.608 53.6794 36.56C53.5474 36.392 53.5474 36.152 53.6554 35.972C53.7274 35.84 53.8474 35.756 53.9914 35.708L54.2554 35.588C54.3274 35.54 54.4234 35.528 54.5074 35.528C54.7114 35.528 54.9034 35.648 54.9874 35.828C55.2034 36.284 56.0314 36.62 56.9074 36.62C58.0354 36.62 58.8754 36.104 58.8754 35.648C58.8754 35.384 58.5994 35.096 58.1554 34.904L55.1674 33.584C54.1234 33.14 53.5114 32.348 53.5114 31.46C53.5114 30.092 55.0594 28.976 56.9794 28.976C57.3274 28.976 57.6754 29.012 58.0114 29.084C58.3234 29.156 58.6354 29.252 58.9354 29.396C59.2114 29.528 59.4634 29.696 59.6914 29.9C59.9194 30.092 60.0994 30.332 60.2434 30.584C60.3394 30.764 60.3394 30.98 60.2314 31.16C60.1474 31.268 60.0394 31.352 59.9074 31.388V31.4L59.6554 31.508C59.5714 31.556 59.4874 31.58 59.3914 31.58C59.2234 31.58 59.0674 31.496 58.9594 31.364C58.9234 31.316 58.8994 31.268 58.8754 31.22C58.8634 31.208 58.8634 31.196 58.8514 31.184C58.8274 31.16 58.8154 31.124 58.7914 31.1C58.7314 31.04 58.6714 30.98 58.5994 30.932C58.4194 30.8 58.2154 30.704 58.0114 30.644C57.7594 30.56 57.4834 30.512 57.2194 30.488C57.1474 30.488 57.0634 30.476 56.9794 30.476C55.8514 30.476 55.0114 31.004 55.0114 31.46C55.0114 31.724 55.2874 32.012 55.7314 32.204L58.7194 33.524ZM65.7793 36.74C65.9953 36.956 65.9953 37.292 65.7793 37.508C65.3833 37.904 64.8433 38.132 64.2793 38.132C63.1153 38.12 62.1673 37.172 62.1553 36.008V33.02H61.9993C61.7113 33.02 61.4713 32.78 61.4713 32.48V32.048C61.4713 31.748 61.7113 31.508 61.9993 31.508H62.1553V30.656C62.1553 30.416 62.3113 30.212 62.5273 30.14L63.0193 29.972H63.1153C63.2353 29.972 63.3433 30.008 63.4393 30.068C63.5833 30.176 63.6673 30.332 63.6673 30.512V31.508H64.5793C64.8793 31.508 65.1193 31.748 65.1193 32.048V32.48C65.1193 32.78 64.8793 33.02 64.5793 33.02H63.6673V36.008C63.6673 36.344 63.9433 36.62 64.2793 36.62C64.3873 36.62 64.4953 36.596 64.5913 36.536C64.6153 36.524 64.6513 36.5 64.6753 36.476C64.6873 36.476 64.6873 36.464 64.6993 36.452C64.8073 36.344 64.9513 36.284 65.0953 36.284C65.2393 36.284 65.3833 36.344 65.4793 36.44L65.7793 36.74ZM73.0036 31.508C73.3036 31.508 73.5436 31.748 73.5436 32.048V37.484C73.5436 37.772 73.3036 38.012 73.0036 38.012H72.5716C72.3076 38.012 72.0796 37.82 72.0436 37.556C71.4916 37.928 70.8436 38.132 70.1836 38.132C68.3236 38.12 66.8236 36.62 66.8236 34.76C66.8236 32.912 68.3236 31.412 70.1836 31.4C70.8436 31.4 71.4916 31.604 72.0436 31.964C72.0796 31.712 72.3076 31.508 72.5716 31.508H73.0036ZM72.0316 34.784V34.748C72.0196 33.728 71.1916 32.912 70.1836 32.912C69.1516 32.912 68.3236 33.74 68.3236 34.76C68.3236 35.792 69.1516 36.62 70.1836 36.62C71.1916 36.62 72.0196 35.792 72.0316 34.784ZM79.6884 31.868C79.7484 32 79.7484 32.168 79.6764 32.3L79.4844 32.696C79.3884 32.876 79.2084 32.996 79.0044 32.996C78.9324 32.996 78.8724 32.984 78.8124 32.96H78.7884C78.7644 32.948 78.7524 32.948 78.7284 32.936C78.7044 32.936 78.6924 32.936 78.6684 32.924C78.6444 32.924 78.6324 32.924 78.6084 32.912C78.5844 32.912 78.5604 32.912 78.5484 32.912C78.5244 32.9 78.5004 32.9 78.4764 32.9C78.4524 32.9 78.4404 32.9 78.4164 32.9C78.3924 32.9 78.3804 32.9 78.3564 32.9C77.5404 32.9 76.8804 33.512 76.8804 34.28V37.484C76.8804 37.772 76.6404 38.012 76.3404 38.024H75.9084C75.6204 38.012 75.3804 37.772 75.3804 37.484V32.048C75.3804 31.748 75.6204 31.508 75.9084 31.508H76.3404C76.5444 31.508 76.7364 31.628 76.8204 31.808C77.2884 31.532 77.8164 31.388 78.3564 31.388C78.7044 31.388 79.0404 31.448 79.3644 31.556C79.5204 31.616 79.6284 31.724 79.6884 31.868ZM84.8762 36.74C85.0922 36.956 85.0922 37.292 84.8762 37.508C84.4802 37.904 83.9402 38.132 83.3762 38.132C82.2122 38.12 81.2642 37.172 81.2522 36.008V33.02H81.0962C80.8082 33.02 80.5682 32.78 80.5682 32.48V32.048C80.5682 31.748 80.8082 31.508 81.0962 31.508H81.2522V30.656C81.2522 30.416 81.4082 30.212 81.6242 30.14L82.1162 29.972H82.2122C82.3322 29.972 82.4402 30.008 82.5362 30.068C82.6802 30.176 82.7642 30.332 82.7642 30.512V31.508H83.6762C83.9762 31.508 84.2162 31.748 84.2162 32.048V32.48C84.2162 32.78 83.9762 33.02 83.6762 33.02H82.7642V36.008C82.7642 36.344 83.0402 36.62 83.3762 36.62C83.4842 36.62 83.5922 36.596 83.6882 36.536C83.7122 36.524 83.7482 36.5 83.7722 36.476C83.7842 36.476 83.7842 36.464 83.7962 36.452C83.9042 36.344 84.0482 36.284 84.1922 36.284C84.3362 36.284 84.4802 36.344 84.5762 36.44L84.8762 36.74ZM92.4485 34.412C92.4605 34.532 92.4725 34.652 92.4725 34.772V34.892C92.4725 35.192 92.2325 35.432 91.9325 35.432H87.5405C87.8165 36.14 88.5125 36.62 89.2805 36.62C89.4605 36.62 89.6525 36.596 89.8205 36.536C90.0005 36.488 90.1685 36.404 90.3245 36.296C90.3725 36.26 90.4325 36.224 90.4805 36.176C90.5165 36.152 90.5405 36.128 90.5645 36.104C90.6725 35.984 90.8165 35.924 90.9725 35.924C91.0925 35.924 91.2245 35.972 91.3205 36.044C91.3325 36.068 91.3565 36.08 91.3805 36.104L91.6085 36.332C91.7765 36.476 91.8485 36.716 91.7765 36.932C91.7405 37.04 91.6805 37.124 91.5965 37.196C91.5725 37.22 91.5485 37.244 91.5245 37.256C91.4765 37.304 91.4285 37.352 91.3685 37.4C91.2605 37.484 91.1525 37.556 91.0325 37.628C90.7925 37.772 90.5405 37.892 90.2885 37.976C90.0245 38.06 89.7485 38.108 89.4725 38.12C89.4125 38.12 89.3405 38.132 89.2805 38.132C87.4205 38.12 85.9205 36.62 85.9205 34.76C85.9205 32.912 87.4205 31.4 89.2805 31.4C90.0965 31.388 90.8885 31.712 91.4645 32.288C92.0405 32.852 92.3885 33.608 92.4485 34.412ZM87.6245 33.92H90.7925C90.5405 33.308 89.9405 32.9 89.2805 32.912C88.5845 32.912 87.9485 33.308 87.6245 33.92ZM99.8059 29.18C100.106 29.18 100.346 29.42 100.346 29.708V37.484C100.346 37.772 100.106 38.012 99.8059 38.012H99.3739C99.1099 38.012 98.8819 37.82 98.8459 37.556C98.2939 37.928 97.6459 38.132 96.9859 38.132C95.1259 38.132 93.6259 36.62 93.6259 34.772C93.6259 32.912 95.1259 31.412 96.9859 31.4C97.6459 31.4 98.2819 31.604 98.8339 31.964V29.708C98.8339 29.42 99.0739 29.18 99.3739 29.18H99.8059ZM98.8339 34.784V34.748C98.8219 33.728 97.9939 32.912 96.9859 32.912C95.9539 32.912 95.1259 33.74 95.1259 34.76C95.1259 35.792 95.9539 36.62 96.9859 36.62C98.0059 36.62 98.8219 35.792 98.8339 34.784Z" fill="white"/>
<path d="M138.001 40.6663L144.667 33.9997M144.667 33.9997L138.001 27.333M144.667 33.9997H131.334M154.667 33.9997C154.667 43.2044 147.205 50.6663 138.001 50.6663C128.796 50.6663 121.334 43.2044 121.334 33.9997C121.334 24.7949 128.796 17.333 138.001 17.333C147.205 17.333 154.667 24.7949 154.667 33.9997Z" stroke="white" stroke-width="3.5" stroke-linecap="round" stroke-linejoin="round"/>
</g>
<defs>
<filter id="filter0_dd_151_2230" x="0" y="0" width="185" height="76" filterUnits="userSpaceOnUse" color-interpolation-filters="sRGB">
<feFlood flood-opacity="0" result="BackgroundImageFix"/>
<feColorMatrix in="SourceAlpha" type="matrix" values="0 0 0 0 0 0 0 0 0 0 0 0 0 0 0 0 0 0 127 0" result="hardAlpha"/>
<feOffset dy="1"/>
<feGaussianBlur stdDeviation="1.5"/>
<feColorMatrix type="matrix" values="0 0 0 0 0 0 0 0 0 0 0 0 0 0 0 0 0 0 0.3 0"/>
<feBlend mode="normal" in2="BackgroundImageFix" result="effect1_dropShadow_151_2230"/>
<feColorMatrix in="SourceAlpha" type="matrix" values="0 0 0 0 0 0 0 0 0 0 0 0 0 0 0 0 0 0 127 0" result="hardAlpha"/>
<feMorphology radius="3" operator="dilate" in="SourceAlpha" result="effect2_dropShadow_151_2230"/>
<feOffset dy="4"/>
<feGaussianBlur stdDeviation="4"/>
<feColorMatrix type="matrix" values="0 0 0 0 0 0 0 0 0 0 0 0 0 0 0 0 0 0 0.15 0"/>
<feBlend mode="normal" in2="effect1_dropShadow_151_2230" result="effect2_dropShadow_151_2230"/>
<feBlend mode="normal" in="SourceGraphic" in2="effect2_dropShadow_151_2230" result="shape"/>
</filter>
</defs>
</svg>
