<svg width="665" height="539" viewBox="0 0 665 539" fill="none" xmlns="http://www.w3.org/2000/svg">
<path fill-rule="evenodd" clip-rule="evenodd" d="M325.701 0L197.201 206.5L243.631 246.771L207.744 305.935L137.035 281.5L22.4506 496.035L147.484 405.282L103.975 477.011L33.2988 508.518L83.8506 510.189L-46.2549 724.683C-64.1599 754.201 -61.3869 791.824 -39.3477 818.399L276.489 1199.23C309.043 1238.48 369.334 1238.25 401.583 1198.74L712.418 817.991C733.975 791.585 736.693 754.509 719.218 725.242L590.553 509.752L630.897 508.419L574.835 483.427L543.135 430.335L633.652 496.035L519.067 281.5L465.352 300.063L429.52 240.05L468.201 206.5L339.701 0L357.192 167.169C340.825 163.41 323.461 164.737 307.792 171.157L325.701 0ZM357.192 167.169L370.201 291.5L429.52 240.05L408.33 204.561C396.231 184.298 377.477 171.828 357.192 167.169ZM465.352 300.063L396.455 323.871L543.135 430.335L465.352 300.063ZM574.835 483.427L363.2 389.082L387.813 516.453L590.553 509.752L574.835 483.427ZM83.8506 510.189L276.383 516.552L300.995 389.182L103.975 477.011L83.8506 510.189ZM147.484 405.282L207.744 305.935L259.647 323.871L147.484 405.282ZM307.792 171.157L295.201 291.5L243.631 246.771L269.528 204.078C279.077 188.336 292.642 177.365 307.792 171.157ZM408.33 1410.56C377.031 1358.14 301.192 1357.88 269.528 1410.08L-46.2549 1930.68C-64.1599 1960.2 -61.3869 1997.82 -39.3477 2024.4L276.489 2405.23C309.043 2444.48 369.334 2444.25 401.583 2404.74L712.418 2023.99C733.975 1997.59 736.693 1960.51 719.218 1931.24L408.33 1410.56Z" fill="#D9D9D9"/>
</svg>
